<?xml version="1.0" encoding="UTF-8" standalone="no"?>
<svg
   height="132"
   width="320"
   version="1.1"
   id="svg8"
   sodipodi:docname="thinkRED-optimized-min.svg"
   inkscape:export-filename="thinkRED-optimized-min-320x132.svg"
   inkscape:export-xdpi="96"
   inkscape:export-ydpi="96"
   xmlns:inkscape="http://www.inkscape.org/namespaces/inkscape"
   xmlns:sodipodi="http://sodipodi.sourceforge.net/DTD/sodipodi-0.dtd"
   xmlns="http://www.w3.org/2000/svg"
   xmlns:svg="http://www.w3.org/2000/svg">
  <defs
     id="defs8" />
  <sodipodi:namedview
     id="namedview8"
     pagecolor="#ffffff"
     bordercolor="#000000"
     borderopacity="0.25"
     inkscape:showpageshadow="2"
     inkscape:pageopacity="0.0"
     inkscape:pagecheckerboard="0"
     inkscape:deskcolor="#d1d1d1" />
  <g
     style="font-style:normal;font-weight:300;font-size:72px;line-height:1;font-family:'Montserrat Light Alt1';font-variant-ligatures:none;text-align:center;text-anchor:middle"
     id="g8"
     transform="matrix(0.3422633,0,0,0.3422633,-15.239029,-65.429011)">
    <path
       style="font-style:normal;font-weight:300;font-size:72px;line-height:1;font-family:'Montserrat Light Alt1';font-variant-ligatures:none;text-align:center;text-anchor:middle"
       d="m 365.03,-2.376 -1.512,-2.52 c -1.584,1.44 -3.528,2.088 -5.832,2.088 -2.304,0 -4.104,-0.576 -5.256,-1.872 -1.152,-1.296 -1.728,-3.168 -1.728,-5.616 v -24.192 h 11.952 v -3.096 h -11.952 v -8.208 h -3.6 v 8.208 h -6.912 v 3.096 h 6.912 v 24.552 c 0,3.24 0.864,5.76 2.664,7.56 1.728,1.8 4.248,2.664 7.56,2.664 1.44,0 2.88,-0.216 4.248,-0.648 a 9.135,9.135 0 0 0 3.456,-2.016 z"
       transform="matrix(2.46,0,0,2.46,-770.235,449.357)"
       id="path1" />
    <path
       style="font-style:normal;font-weight:300;font-size:72px;line-height:1;font-family:'Montserrat Light Alt1';font-variant-ligatures:none;text-align:center;text-anchor:middle"
       d="m 404.59,-33.768 c -2.736,-2.736 -6.48,-4.104 -11.16,-4.104 -3.457,0 -6.48,0.72 -9,2.16 -2.593,1.44 -4.465,3.384 -5.76,5.976 v -23.688 h -3.6 V 0 h 3.6 v -20.016 c 0,-4.464 1.223,-7.992 3.815,-10.656 2.52,-2.592 5.976,-3.96 10.44,-3.96 3.816,0 6.768,1.152 8.928,3.312 2.16,2.232 3.24,5.472 3.24,9.648 V 0 h 3.6 v -21.96 c 0,-5.112 -1.368,-9.072 -4.104,-11.808 z"
       fill="#1b0000"
       transform="matrix(2.46,0,0,2.46,-762.855,449.357)"
       id="path2" />
    <path
       style="font-style:normal;font-weight:300;font-size:72px;line-height:1;font-family:'Montserrat Light Alt1';font-variant-ligatures:none;text-align:center;text-anchor:middle"
       d="M 423.585,-37.584 V 0 h 3.6 v -37.584 z m -0.288,-9.936 c 0.576,0.576 1.224,0.792 2.088,0.792 0.792,0 1.512,-0.288 2.088,-0.864 0.576,-0.576 0.864,-1.224 0.864,-2.088 0,-0.792 -0.288,-1.44 -0.864,-2.016 a 2.884,2.884 0 0 0 -2.088,-0.864 c -0.864,0 -1.512,0.288 -2.088,0.864 a 2.884,2.884 0 0 0 -0.864,2.088 c 0,0.864 0.288,1.512 0.864,2.088 z"
       fill="#380000"
       transform="matrix(2.46,0,0,2.46,-755.475,449.357)"
       id="path3" />
    <path
       style="font-style:normal;font-weight:300;font-size:72px;line-height:1;font-family:'Montserrat Light Alt1';font-variant-ligatures:none;text-align:center;text-anchor:middle"
       d="m 471.949,-33.768 c -2.736,-2.736 -6.48,-4.104 -11.16,-4.104 -3.528,0 -6.552,0.792 -9.144,2.232 -2.592,1.512 -4.464,3.6 -5.76,6.192 v -8.136 h -3.456 V 0 h 3.6 v -20.016 c 0,-4.464 1.224,-7.992 3.816,-10.656 2.52,-2.592 5.976,-3.96 10.44,-3.96 3.816,0 6.768,1.152 8.928,3.312 2.16,2.232 3.24,5.472 3.24,9.648 V 0 h 3.6 v -21.96 c 0,-5.112 -1.368,-9.072 -4.104,-11.808 z"
       fill="#5c0000"
       transform="matrix(2.46,0,0,2.46,-748.095,449.357)"
       id="path4" />
    <path
       style="font-style:normal;font-weight:300;font-size:72px;line-height:1;font-family:'Montserrat Light Alt1';font-variant-ligatures:none;text-align:center;text-anchor:middle"
       d="M 504.337,-20.088 520.32,0 h 4.464 L 507,-22.392 523.2,-37.584 h -4.608 l -24.048,21.96 v -37.8 h -3.6 V 0 h 3.6 v -11.16 z"
       fill="#830000"
       transform="matrix(2.46,0,0,2.46,-740.715,449.357)"
       id="path5" />
    <path
       style="font-style:normal;font-weight:300;font-size:72px;line-height:1;font-family:'Montserrat Light Alt1';font-variant-ligatures:none;text-align:center;text-anchor:middle"
       d="m 560.993,-17.64 c 3.744,-1.08 6.696,-2.952 8.712,-5.688 2.016,-2.736 3.096,-6.048 3.096,-10.08 0,-5.256 -1.8,-9.432 -5.4,-12.456 -3.6,-3.024 -8.568,-4.536 -14.904,-4.536 h -18.072 v 3.312 h 18.072 c 5.328,0 9.432,1.224 12.312,3.6 2.808,2.376 4.248,5.76 4.248,10.08 0,4.392 -1.44,7.776 -4.248,10.152 -2.88,2.376 -6.984,3.528 -12.312,3.528 H 534.425 V 0 h 3.672 v -16.488 h 14.4 c 1.44,0 3.096,-0.072 4.896,-0.36 L 569.417,0 h 4.176 z"
       fill="#ad0000"
       transform="matrix(2.46,0,0,2.46,-733.335,449.357)"
       id="path6" />
    <path
       style="font-style:normal;font-weight:300;font-size:72px;line-height:1;font-family:'Montserrat Light Alt1';font-variant-ligatures:none;text-align:center;text-anchor:middle"
       d="m 618.931,-27.216 h -32.616 v 3.24 h 32.616 z m 0,-23.184 h -32.616 v 3.312 h 32.616 z M 586.315,-3.312 V 0 h 32.616 v -3.312 z"
       fill="#d60000"
       transform="matrix(2.46,0,0,2.46,-725.955,449.357)"
       id="path7" />
    <path
       style="font-style:normal;font-weight:300;font-size:72px;line-height:1;font-family:'Montserrat Light Alt1';font-variant-ligatures:none;text-align:center;text-anchor:middle"
       d="m 677.894,-38.16 c -2.304,-3.816 -5.472,-6.768 -9.504,-9 -4.032,-2.16 -8.712,-3.24 -13.896,-3.24 H 634.55 v 3.312 h 19.656 c 4.608,0 8.712,0.936 12.312,2.808 3.528,1.872 6.264,4.464 8.208,7.704 1.872,3.312 2.88,7.128 2.88,11.376 0,4.32 -1.008,8.064 -2.88,11.376 -1.944,3.312 -4.68,5.904 -8.208,7.776 -3.6,1.872 -7.704,2.736 -12.312,2.736 H 638.222 V -25.2 H 634.55 V 0 h 19.944 c 5.184,0 9.864,-1.08 13.896,-3.24 4.032,-2.16 7.2,-5.112 9.504,-8.928 2.232,-3.816 3.384,-8.136 3.384,-13.032 0,-4.824 -1.152,-9.144 -3.384,-12.96 z"
       fill="#ff0000"
       transform="matrix(2.46,0,0,2.46,-718.575,449.357)"
       id="path8" />
  </g>
</svg>
