<svg xmlns="http://www.w3.org/2000/svg" height="768" width="1024"><g style="font-style:normal;font-weight:300;font-size:72px;line-height:1;font-family:'Montserrat Light Alt1';font-variant-ligatures:none;text-align:center;text-anchor:middle"><path style="font-style:normal;font-weight:300;font-size:72px;line-height:1;font-family:'Montserrat Light Alt1';font-variant-ligatures:none;text-align:center;text-anchor:middle" d="m365.03-2.376-1.512-2.52c-1.584 1.44-3.528 2.088-5.832 2.088s-4.104-.576-5.256-1.872c-1.152-1.296-1.728-3.168-1.728-5.616v-24.192h11.952v-3.096h-11.952v-8.208h-3.6v8.208h-6.912v3.096h6.912v24.552c0 3.24.864 5.76 2.664 7.56 1.728 1.8 4.248 2.664 7.56 2.664 1.44 0 2.88-.216 4.248-.648a9.135 9.135 0 0 0 3.456-2.016z" transform="matrix(2.46 0 0 2.46 -770.235 449.357)"/><path style="font-style:normal;font-weight:300;font-size:72px;line-height:1;font-family:'Montserrat Light Alt1';font-variant-ligatures:none;text-align:center;text-anchor:middle" d="M404.59-33.768c-2.736-2.736-6.48-4.104-11.16-4.104-3.457 0-6.48.72-9 2.16-2.593 1.44-4.465 3.384-5.76 5.976v-23.688h-3.6V0h3.6v-20.016c0-4.464 1.223-7.992 3.815-10.656 2.52-2.592 5.976-3.96 10.44-3.96 3.816 0 6.768 1.152 8.928 3.312 2.16 2.232 3.24 5.472 3.24 9.648V0h3.6v-21.96c0-5.112-1.368-9.072-4.104-11.808z" fill="#1b0000" transform="matrix(2.46 0 0 2.46 -762.855 449.357)"/><path style="font-style:normal;font-weight:300;font-size:72px;line-height:1;font-family:'Montserrat Light Alt1';font-variant-ligatures:none;text-align:center;text-anchor:middle" d="M423.585-37.584V0h3.6v-37.584zm-.288-9.936c.576.576 1.224.792 2.088.792.792 0 1.512-.288 2.088-.864.576-.576.864-1.224.864-2.088 0-.792-.288-1.44-.864-2.016a2.884 2.884 0 0 0-2.088-.864c-.864 0-1.512.288-2.088.864a2.884 2.884 0 0 0-.864 2.088c0 .864.288 1.512.864 2.088z" fill="#380000" transform="matrix(2.46 0 0 2.46 -755.475 449.357)"/><path style="font-style:normal;font-weight:300;font-size:72px;line-height:1;font-family:'Montserrat Light Alt1';font-variant-ligatures:none;text-align:center;text-anchor:middle" d="M471.949-33.768c-2.736-2.736-6.48-4.104-11.16-4.104-3.528 0-6.552.792-9.144 2.232-2.592 1.512-4.464 3.6-5.76 6.192v-8.136h-3.456V0h3.6v-20.016c0-4.464 1.224-7.992 3.816-10.656 2.52-2.592 5.976-3.96 10.44-3.96 3.816 0 6.768 1.152 8.928 3.312 2.16 2.232 3.24 5.472 3.24 9.648V0h3.6v-21.96c0-5.112-1.368-9.072-4.104-11.808z" fill="#5c0000" transform="matrix(2.46 0 0 2.46 -748.095 449.357)"/><path style="font-style:normal;font-weight:300;font-size:72px;line-height:1;font-family:'Montserrat Light Alt1';font-variant-ligatures:none;text-align:center;text-anchor:middle" d="M504.337-20.088 520.32 0h4.464L507-22.392l16.2-15.192h-4.608l-24.048 21.96v-37.8h-3.6V0h3.6v-11.16z" fill="#830000" transform="matrix(2.46 0 0 2.46 -740.715 449.357)"/><path style="font-style:normal;font-weight:300;font-size:72px;line-height:1;font-family:'Montserrat Light Alt1';font-variant-ligatures:none;text-align:center;text-anchor:middle" d="M560.993-17.64c3.744-1.08 6.696-2.952 8.712-5.688 2.016-2.736 3.096-6.048 3.096-10.08 0-5.256-1.8-9.432-5.4-12.456-3.6-3.024-8.568-4.536-14.904-4.536h-18.072v3.312h18.072c5.328 0 9.432 1.224 12.312 3.6 2.808 2.376 4.248 5.76 4.248 10.08 0 4.392-1.44 7.776-4.248 10.152-2.88 2.376-6.984 3.528-12.312 3.528h-18.072V0h3.672v-16.488h14.4c1.44 0 3.096-.072 4.896-.36L569.417 0h4.176z" fill="#ad0000" transform="matrix(2.46 0 0 2.46 -733.335 449.357)"/><path style="font-style:normal;font-weight:300;font-size:72px;line-height:1;font-family:'Montserrat Light Alt1';font-variant-ligatures:none;text-align:center;text-anchor:middle" d="M618.931-27.216h-32.616v3.24h32.616zm0-23.184h-32.616v3.312h32.616zM586.315-3.312V0h32.616v-3.312z" fill="#d60000" transform="matrix(2.46 0 0 2.46 -725.955 449.357)"/><path style="font-style:normal;font-weight:300;font-size:72px;line-height:1;font-family:'Montserrat Light Alt1';font-variant-ligatures:none;text-align:center;text-anchor:middle" d="M677.894-38.16c-2.304-3.816-5.472-6.768-9.504-9-4.032-2.16-8.712-3.24-13.896-3.24H634.55v3.312h19.656c4.608 0 8.712.936 12.312 2.808 3.528 1.872 6.264 4.464 8.208 7.704 1.872 3.312 2.88 7.128 2.88 11.376 0 4.32-1.008 8.064-2.88 11.376-1.944 3.312-4.68 5.904-8.208 7.776-3.6 1.872-7.704 2.736-12.312 2.736h-15.984V-25.2h-3.672V0h19.944c5.184 0 9.864-1.08 13.896-3.24s7.2-5.112 9.504-8.928c2.232-3.816 3.384-8.136 3.384-13.032 0-4.824-1.152-9.144-3.384-12.96z" fill="red" transform="matrix(2.46 0 0 2.46 -718.575 449.357)"/></g></svg>