<svg xmlns:dc="http://purl.org/dc/elements/1.1/" xmlns:cc="http://creativecommons.org/ns#" xmlns:rdf="http://www.w3.org/1999/02/22-rdf-syntax-ns#" xmlns:svg="http://www.w3.org/2000/svg" xmlns="http://www.w3.org/2000/svg" xmlns:xlink="http://www.w3.org/1999/xlink" id="svg702754" viewBox="0 0 1024 768" height="768px" width="1024px" version="1.1">
  <metadata id="metadata702760">
    <rdf:rdf>
      <cc:work rdf:about="">
        <dc:format>image/svg+xml</dc:format>
        <dc:type rdf:resource="http://purl.org/dc/dcmitype/StillImage"></dc:type>
      </cc:work>
    </rdf:rdf>
  </metadata>
  <defs id="defs702758"></defs>
  <linearGradient spreadMethod="pad" y2="30%" x2="-10%" y1="120%" x1="30%" id="3d_gradient2-logo-a0d3d7c7-9e89-40f7-a995-16720d76b814">
    <stop id="stop702735" stop-opacity="1" stop-color="#ffffff" offset="0%"></stop>
    <stop id="stop702737" stop-opacity="1" stop-color="#000000" offset="100%"></stop>
  </linearGradient>
  <linearGradient gradientTransform="rotate(-30)" spreadMethod="pad" y2="30%" x2="-10%" y1="120%" x1="30%" id="3d_gradient3-logo-a0d3d7c7-9e89-40f7-a995-16720d76b814">
    <stop id="stop702740" stop-opacity="1" stop-color="#ffffff" offset="0%"></stop>
    <stop id="stop702742" stop-opacity="1" stop-color="#cccccc" offset="50%"></stop>
    <stop id="stop702744" stop-opacity="1" stop-color="#000000" offset="100%"></stop>
  </linearGradient>
  <g id="logo-group">
    <image xlink:href="" id="container" x="272" y="144" width="480" height="480" style="display: none;" transform="translate(0 0)"></image>
    <g id="logo-center" transform="translate(0 0)">
      <image xlink:href="" id="icon_container" x="0" y="0" style="display: none;"></image>
      <g id="slogan" style="font-style:normal;font-weight:300;font-size:32px;line-height:1;font-family:Comfortaa;font-variant-ligatures:none;text-align:center;text-anchor:middle" transform="translate(0 0)"></g>
      <g id="title" style="font-style:normal;font-weight:300;font-size:72px;line-height:1;font-family:'Montserrat Light Alt1';font-variant-ligatures:none;text-align:center;text-anchor:middle" transform="translate(0 0)">
        <path id="path702763" style="font-style:normal;font-weight:300;font-size:72px;line-height:1;font-family:'Montserrat Light Alt1';font-variant-ligatures:none;text-align:center;text-anchor:middle" d="m 365.03,-2.376 -1.512,-2.52 c -1.584,1.44 -3.528,2.088 -5.832,2.088 -2.304,0 -4.104,-0.576 -5.256,-1.872 -1.152,-1.296 -1.728,-3.168 -1.728,-5.616 v -24.192 h 11.952 v -3.096 h -11.952 v -8.208 h -3.6 v 8.208 h -6.912 v 3.096 h 6.912 v 24.552 c 0,3.24 0.864,5.76 2.664,7.56 1.728,1.8 4.248,2.664 7.56,2.664 1.44,0 2.88,-0.216 4.248,-0.648 1.368,-0.432 2.52,-1.152 3.456,-2.016 z" stroke-width="0" stroke-linejoin="miter" stroke-miterlimit="2" fill="#000000" stroke="#000000" transform="translate(0 345.93328) translate(66.63222739999992 -9.224319999999999) scale(2.46) translate(-340.19 45.792)"></path>
        <path id="path702765" style="font-style:normal;font-weight:300;font-size:72px;line-height:1;font-family:'Montserrat Light Alt1';font-variant-ligatures:none;text-align:center;text-anchor:middle" d="m 404.5895,-33.768 c -2.736,-2.736 -6.48,-4.104 -11.16,-4.104 -3.456,0 -6.48,0.72 -9,2.16 -2.592,1.44 -4.464,3.384 -5.76,5.976 v -23.688 h -3.6 V 0 h 3.6 v -20.016 c 0,-4.464 1.224,-7.992 3.816,-10.656 2.52,-2.592 5.976,-3.96 10.44,-3.96 3.816,0 6.768,1.152 8.928,3.312 2.16,2.232 3.24,5.472 3.24,9.648 V 0 h 3.6 v -21.96 c 0,-5.112 -1.368,-9.072 -4.104,-11.808 z" stroke-width="0" stroke-linejoin="miter" stroke-miterlimit="2" fill="#1b0000" stroke="#1b0000" transform="translate(0 345.93328) translate(159.8157974 -27.999039999999987) scale(2.46) translate(-375.0695 53.424)"></path>
        <path id="path702767" style="font-style:normal;font-weight:300;font-size:72px;line-height:1;font-family:'Montserrat Light Alt1';font-variant-ligatures:none;text-align:center;text-anchor:middle" d="M 423.58512,-37.584 V 0 h 3.6 v -37.584 z m -0.288,-9.936 c 0.57601,0.576 1.224,0.792 2.08801,0.792 0.79199,0 1.512,-0.288 2.08799,-0.864 0.576,-0.576 0.86401,-1.224 0.86401,-2.088 0,-0.792 -0.28801,-1.44 -0.86401,-2.016 -0.57599,-0.576 -1.296,-0.864 -2.08799,-0.864 -0.86401,0 -1.512,0.288 -2.08801,0.864 -0.576,0.576 -0.86399,1.296 -0.86399,2.088 0,0.864 0.28799,1.512 0.86399,2.088 z" stroke-width="0" stroke-linejoin="miter" stroke-miterlimit="2" fill="#380000" stroke="#380000" transform="translate(0 345.93328) translate(283.71032719999994 -25.873600000000017) scale(2.46) translate(-422.43313 52.56)"></path>
        <path id="path702769" style="font-style:normal;font-weight:300;font-size:72px;line-height:1;font-family:'Montserrat Light Alt1';font-variant-ligatures:none;text-align:center;text-anchor:middle" d="m 471.94887,-33.768 c -2.736,-2.736 -6.47999,-4.104 -11.15999,-4.104 -3.52801,0 -6.55201,0.792 -9.144,2.232 -2.59201,1.512 -4.464,3.6 -5.76,6.192 v -8.136 h -3.45601 V 0 h 3.6 v -20.016 c 0,-4.464 1.22401,-7.992 3.816,-10.656 2.52,-2.592 5.976,-3.96 10.44,-3.96 3.816,0 6.768,1.152 8.928,3.312 2.16001,2.232 3.24,5.472 3.24,9.648 V 0 h 3.60001 v -21.96 c 0,-5.112 -1.368,-9.072 -4.10401,-11.808 z" stroke-width="0" stroke-linejoin="miter" stroke-miterlimit="2" fill="#5c0000" stroke="#5c0000" transform="translate(0 345.93328) translate(340.2798476 10.258879999999998) scale(2.46) translate(-442.42887 37.872)"></path>
        <path id="path702771" style="font-style:normal;font-weight:300;font-size:72px;line-height:1;font-family:'Montserrat Light Alt1';font-variant-ligatures:none;text-align:center;text-anchor:middle" d="M 504.3365,-20.088 520.3205,0 h 4.464 l -17.784,-22.392 16.2,-15.192 h -4.608 l -24.048,21.96 v -37.8 h -3.6 V 0 h 3.6 v -11.16 z" stroke-width="0" stroke-linejoin="miter" stroke-miterlimit="2" fill="#830000" stroke="#830000" transform="translate(0 345.93328) translate(467.00829739999995 -27.999039999999987) scale(2.46) translate(-490.9445 53.424)"></path>
        <path id="path702773" style="font-style:normal;font-weight:300;font-size:72px;line-height:1;font-family:'Montserrat Light Alt1';font-variant-ligatures:none;text-align:center;text-anchor:middle" d="m 560.99262,-17.64 c 3.744,-1.08 6.696,-2.952 8.712,-5.688 2.01601,-2.736 3.096,-6.048 3.096,-10.08 0,-5.256 -1.79999,-9.432 -5.4,-12.456 -3.6,-3.024 -8.568,-4.536 -14.904,-4.536 h -18.072 v 3.312 h 18.072 c 5.328,0 9.432,1.224 12.312,3.6 2.808,2.376 4.248,5.76 4.248,10.08 0,4.392 -1.44,7.776 -4.248,10.152 -2.88,2.376 -6.984,3.528 -12.312,3.528 h -18.072 V 0 h 3.67201 v -16.488 h 14.39999 c 1.44001,0 3.096,-0.072 4.896,-0.36 L 569.41662,0 h 4.176 z" stroke-width="0" stroke-linejoin="miter" stroke-miterlimit="2" fill="#ad0000" stroke="#ad0000" transform="translate(0 345.93328) translate(581.3493926 -20.559999999999995) scale(2.46) translate(-534.42462 50.4)"></path>
        <path id="path702775" style="font-style:normal;font-weight:300;font-size:72px;line-height:1;font-family:'Montserrat Light Alt1';font-variant-ligatures:none;text-align:center;text-anchor:middle" d="m 618.93125,-27.216 h -32.616 v 3.24 h 32.616 z m 0,-23.184 h -32.616 v 3.312 h 32.616 z m -32.616,47.088 V 0 h 32.616 v -3.312 z" stroke-width="0" stroke-linejoin="miter" stroke-miterlimit="2" fill="#d60000" stroke="#d60000" transform="translate(0 345.93328) translate(716.3803424 -20.559999999999995) scale(2.46) translate(-586.31525 50.4)"></path>
        <path id="path702777" style="font-style:normal;font-weight:300;font-size:72px;line-height:1;font-family:'Montserrat Light Alt1';font-variant-ligatures:none;text-align:center;text-anchor:middle" d="m 677.89363,-38.16 c -2.30401,-3.816 -5.47201,-6.768 -9.504,-9 -4.03201,-2.16 -8.712,-3.24 -13.89601,-3.24 h -19.944 v 3.312 h 19.65601 c 4.60799,0 8.712,0.936 12.31199,2.808 3.528,1.872 6.264,4.464 8.20801,7.704 1.87199,3.312 2.88,7.128 2.88,11.376 0,4.32 -1.00801,8.064 -2.88,11.376 -1.94401,3.312 -4.68001,5.904 -8.20801,7.776 -3.59999,1.872 -7.704,2.736 -12.31199,2.736 h -15.984 V -25.2 h -3.67201 V 0 h 19.944 c 5.18401,0 9.864,-1.08 13.89601,-3.24 4.03199,-2.16 7.19999,-5.112 9.504,-8.928 2.232,-3.816 3.38399,-8.136 3.38399,-13.032 0,-4.824 -1.15199,-9.144 -3.38399,-12.96 z" stroke-width="0" stroke-linejoin="miter" stroke-miterlimit="2" fill="#ff0000" stroke="#ff0000" transform="translate(0 345.93328) translate(842.4168926000001 -20.559999999999995) scale(2.46) translate(-634.54962 50.4)"></path>
      </g>
      <image xlink:href="" id="icon" x="0" y="0" style="display: none;"></image>
    </g>
  </g>
</svg>